<svg id="svg" version="1.1" xmlns="http://www.w3.org/2000/svg" xmlns:xlink="http://www.w3.org/1999/xlink" width="400" height="183.6065573770492" viewBox="0, 0, 400,183.6065573770492"><g id="svgg"><path id="path1" d="M175.390 0.269 C 169.825 1.326,164.750 4.989,162.742 9.397 C 156.971 22.064,167.959 35.111,181.981 32.241 C 183.891 31.850,187.010 30.528,187.997 29.691 C 188.315 29.421,188.651 29.201,188.745 29.201 C 189.393 29.201,192.797 25.093,193.617 23.321 C 199.199 11.262,188.533 -2.228,175.390 0.269 M209.917 67.401 L 209.917 134.803 224.793 134.803 L 239.669 134.803 239.669 113.315 C 239.669 95.706,239.713 91.827,239.910 91.827 C 240.188 91.827,240.322 92.002,242.515 95.225 C 243.408 96.538,244.731 98.480,245.454 99.541 C 249.618 105.648,251.326 108.152,253.688 111.616 C 254.428 112.702,255.653 114.500,256.411 115.611 C 257.169 116.722,258.408 118.540,259.166 119.651 C 261.892 123.650,263.326 125.752,264.928 128.099 C 265.824 129.412,267.216 131.458,268.020 132.645 L 269.482 134.803 287.817 134.803 C 297.902 134.803,306.152 134.761,306.152 134.711 C 306.152 134.661,305.774 134.103,305.312 133.472 C 304.211 131.967,304.162 131.900,302.602 129.733 C 301.867 128.712,301.080 127.638,300.853 127.346 C 300.626 127.053,299.810 125.946,299.041 124.885 C 298.271 123.825,297.091 122.213,296.417 121.304 C 294.922 119.287,293.135 116.856,292.697 116.246 C 291.789 114.979,289.913 112.401,289.428 111.754 C 289.125 111.350,288.246 110.152,287.474 109.091 C 286.703 108.030,285.520 106.419,284.847 105.510 C 283.242 103.343,281.532 101.017,281.130 100.452 C 279.946 98.788,278.491 96.868,278.375 96.817 C 278.299 96.783,278.237 96.670,278.237 96.566 C 278.237 96.462,278.025 96.118,277.765 95.801 C 277.506 95.484,276.666 94.357,275.898 93.297 C 274.199 90.951,272.199 88.240,271.132 86.838 C 270.380 85.851,270.171 85.322,270.478 85.185 C 270.553 85.152,270.863 84.828,271.166 84.467 C 272.148 83.296,273.534 81.674,274.380 80.707 C 274.835 80.187,275.335 79.605,275.492 79.413 C 275.650 79.221,276.133 78.650,276.567 78.145 C 277.001 77.640,277.525 77.020,277.733 76.768 C 278.315 76.059,280.098 73.995,280.747 73.278 C 281.067 72.925,281.519 72.388,281.751 72.084 C 281.983 71.781,282.218 71.492,282.274 71.442 C 282.329 71.391,283.076 70.523,283.932 69.513 C 284.788 68.503,285.577 67.584,285.683 67.470 C 285.790 67.357,286.163 66.913,286.511 66.485 C 286.859 66.056,287.257 65.587,287.395 65.443 C 287.534 65.299,287.933 64.833,288.284 64.408 C 289.096 63.425,290.402 61.897,291.460 60.691 C 291.915 60.173,292.617 59.351,293.021 58.864 C 293.425 58.376,293.839 57.887,293.940 57.777 C 294.042 57.666,294.827 56.749,295.684 55.739 C 296.542 54.729,297.326 53.814,297.428 53.706 C 297.529 53.597,297.943 53.110,298.347 52.622 C 298.751 52.135,299.165 51.645,299.266 51.534 C 299.368 51.423,300.152 50.505,301.009 49.495 C 301.866 48.485,302.840 47.369,303.174 47.016 C 303.508 46.662,303.919 46.146,304.088 45.868 C 304.257 45.590,304.460 45.363,304.539 45.363 C 304.618 45.363,304.683 45.280,304.683 45.179 C 304.683 45.058,298.565 44.995,286.695 44.995 L 268.707 44.995 267.685 46.327 C 265.744 48.855,264.639 50.268,263.069 52.229 C 262.656 52.746,261.504 54.201,260.510 55.464 C 259.516 56.726,258.408 58.126,258.048 58.574 C 257.687 59.023,257.227 59.611,257.025 59.883 C 255.942 61.337,254.987 62.571,254.722 62.858 C 254.557 63.035,253.975 63.765,253.428 64.480 C 252.881 65.195,252.020 66.289,251.515 66.912 C 251.010 67.534,250.184 68.581,249.680 69.238 C 249.175 69.894,248.661 70.556,248.538 70.707 C 248.414 70.859,247.891 71.520,247.376 72.176 C 246.295 73.552,246.441 73.367,244.547 75.758 C 242.268 78.633,241.651 79.414,240.867 80.421 C 240.465 80.937,240.031 81.359,239.903 81.359 C 239.715 81.359,239.669 73.438,239.669 40.680 L 239.669 0.000 224.793 0.000 L 209.917 0.000 209.917 67.401 M346.740 42.182 C 328.981 43.496,314.293 53.226,307.151 68.406 C 299.987 83.634,301.242 104.412,310.101 117.264 C 310.519 117.870,311.223 118.889,311.665 119.529 C 313.006 121.469,317.153 125.645,319.401 127.320 C 319.640 127.498,320.083 127.838,320.386 128.075 C 321.478 128.932,326.881 132.231,327.191 132.231 C 327.249 132.231,327.725 132.427,328.249 132.666 C 330.282 133.594,330.880 133.848,331.589 134.084 C 331.993 134.218,332.406 134.383,332.507 134.449 C 333.146 134.870,337.263 135.988,340.496 136.620 C 347.885 138.063,357.996 138.025,364.646 136.529 C 365.354 136.370,366.056 136.214,366.208 136.182 C 372.322 134.905,380.398 131.080,384.665 127.439 C 387.316 125.177,391.702 120.417,392.712 118.706 C 392.787 118.578,392.457 118.259,391.873 117.896 C 390.191 116.851,387.425 115.101,385.427 113.820 C 384.365 113.138,383.456 112.580,383.407 112.580 C 383.359 112.580,382.532 112.064,381.569 111.433 C 380.606 110.801,379.214 109.904,378.477 109.439 C 377.739 108.975,376.212 108.005,375.084 107.284 C 372.323 105.522,372.084 105.418,371.827 105.875 C 370.487 108.256,364.898 112.289,361.291 113.476 C 350.961 116.875,340.136 113.870,333.881 105.867 C 332.737 104.403,331.448 101.174,331.044 98.761 L 330.929 98.073 363.490 98.026 L 396.051 97.980 396.044 91.368 C 396.035 84.256,395.857 82.061,394.932 77.686 C 392.540 66.365,386.712 56.648,378.788 50.770 C 377.778 50.020,376.862 49.334,376.753 49.244 C 374.781 47.616,368.683 44.899,364.371 43.726 C 359.370 42.366,352.449 41.760,346.740 42.182 M56.198 42.471 C 56.148 42.521,55.569 42.613,54.913 42.675 C 52.456 42.909,49.089 43.735,47.263 44.553 C 46.945 44.695,46.630 44.812,46.562 44.812 C 46.217 44.812,42.686 46.651,41.347 47.529 C 37.972 49.741,35.435 52.303,33.242 55.713 C 32.686 56.577,32.169 57.287,32.094 57.292 C 32.018 57.296,31.956 54.532,31.956 51.148 L 31.956 44.995 17.539 44.995 L 3.122 44.995 3.122 89.899 L 3.122 134.803 18.090 134.803 L 33.058 134.803 33.058 109.436 C 33.058 87.532,33.097 83.803,33.341 82.117 C 34.952 71.033,42.391 64.969,51.487 67.326 C 55.702 68.418,58.927 72.219,59.810 77.135 C 59.856 77.388,59.987 77.925,60.103 78.329 C 60.255 78.862,60.330 86.718,60.373 106.933 L 60.433 134.803 75.304 134.803 L 90.174 134.803 90.176 109.780 C 90.178 81.502,90.176 81.537,91.585 77.329 C 96.025 64.069,113.341 63.130,116.714 75.966 C 117.635 79.471,117.609 78.627,117.674 107.668 L 117.734 134.803 132.606 134.803 L 147.477 134.803 147.458 105.647 C 147.437 74.453,147.449 74.876,146.456 69.330 C 146.151 67.621,145.071 63.696,144.638 62.718 C 144.503 62.415,144.335 61.974,144.264 61.738 C 143.887 60.493,140.981 55.241,139.943 53.932 C 138.602 52.240,135.111 48.669,134.798 48.669 C 134.727 48.669,134.353 48.417,133.966 48.110 C 132.974 47.321,130.167 45.670,128.649 44.981 C 127.124 44.290,124.952 43.583,123.386 43.269 C 123.150 43.222,122.544 43.101,122.039 43.001 C 116.240 41.852,106.786 42.577,101.797 44.554 C 95.912 46.886,89.619 51.991,86.705 56.795 C 86.244 57.557,86.047 57.644,85.885 57.163 C 85.458 55.896,82.908 52.443,80.939 50.468 C 75.707 45.218,69.245 42.748,60.055 42.486 C 57.984 42.428,56.249 42.420,56.198 42.471 M163.269 89.899 L 163.269 134.803 178.145 134.803 L 193.021 134.803 193.021 89.899 L 193.021 44.995 178.145 44.995 L 163.269 44.995 163.269 89.899 M354.804 62.819 C 362.676 63.806,368.779 70.625,368.779 78.433 L 368.779 79.522 349.856 79.522 L 330.933 79.522 331.056 78.558 C 331.345 76.287,332.817 72.472,333.954 71.045 C 334.168 70.776,334.489 70.363,334.668 70.127 C 338.786 64.674,346.700 61.802,354.804 62.819 M67.202 150.302 C 67.160 150.342,66.713 150.429,66.208 150.496" stroke="none" fill="#ffffff" fill-rule="evenodd"></path></g></svg>